<?xml version="1.0" standalone="no"?>
<!DOCTYPE svg PUBLIC "-//W3C//DTD SVG 20010904//EN"
 "http://www.w3.org/TR/2001/REC-SVG-20010904/DTD/svg10.dtd">
<svg version="1.0" xmlns="http://www.w3.org/2000/svg"
 width="222.000000pt" height="108.000000pt" viewBox="0 0 222.000000 108.000000"
 preserveAspectRatio="xMidYMid meet">

<g transform="translate(0.000000,108.000000) scale(0.100000,-0.100000)"
fill="#000000" stroke="none">
<path d="M1450 1000 l0 -80 -40 0 c-57 0 -96 -23 -131 -78 l-29 -46 0 57 0 58
-72 -3 -73 -3 0 -88 c0 -48 -2 -87 -5 -87 -3 1 -16 24 -29 52 -25 52 -82 102
-144 125 -40 15 -160 16 -209 3 -49 -14 -117 -66 -147 -113 l-24 -37 -17 38
c-18 40 -78 98 -117 113 -39 15 -141 11 -179 -7 -19 -9 -45 -30 -59 -46 l-25
-30 0 42 0 41 -72 -3 -73 -3 0 -375 0 -375 75 0 75 0 0 146 0 147 32 -28 c43
-38 94 -53 163 -48 75 5 130 41 168 107 l28 50 35 -47 c70 -95 217 -138 337
-98 62 21 146 94 164 142 6 18 14 34 18 34 3 0 4 -38 2 -85 l-3 -85 75 0 76 0
0 98 c0 137 14 219 41 248 26 27 74 39 124 30 l35 -7 0 -184 0 -185 75 0 75 0
0 200 0 200 30 0 c35 0 35 3 14 -61 -21 -62 -14 -149 14 -205 11 -22 40 -58
64 -81 121 -111 336 -93 435 36 79 103 70 265 -20 359 -53 56 -101 75 -200 80
-83 4 -91 3 -152 -27 -35 -18 -73 -43 -84 -56 -10 -14 -20 -25 -22 -25 -2 0
-4 21 -4 47 l0 48 -37 3 -38 3 0 85 0 84 -75 0 -75 0 0 -80z m-1087 -239 c27
-27 32 -39 35 -98 4 -51 0 -74 -13 -99 -44 -82 -178 -83 -221 -2 -25 46 -24
134 1 175 41 70 140 82 198 24z m527 4 c38 -20 60 -63 60 -117 0 -55 -17 -87
-59 -115 -68 -46 -167 -19 -198 54 -24 59 -13 120 31 160 31 28 43 33 86 33
28 0 64 -7 80 -15z m1119 -10 c84 -71 52 -221 -52 -240 -59 -11 -102 2 -136
41 -26 29 -31 43 -31 85 0 95 41 139 131 139 47 0 63 -5 88 -25z"/>
<path d="M1893 715 c-74 -31 -48 -145 33 -145 56 0 92 67 64 120 -15 28 -61
40 -97 25z"/>
<path d="M1800 165 c0 -52 3 -95 8 -95 4 0 7 43 7 95 0 52 -3 95 -7 95 -5 0
-8 -43 -8 -95z"/>
<path d="M2013 214 c-6 -13 -7 -24 -3 -24 5 0 10 -26 12 -57 3 -54 5 -58 28
-60 25 -3 25 -3 2 7 -21 9 -23 15 -20 80 2 78 -2 90 -19 54z"/>
<path d="M1142 210 c-7 -11 -8 -20 -3 -20 6 0 11 -26 13 -57 3 -57 4 -58 33
-60 28 -2 28 -1 5 6 -23 6 -25 11 -26 74 0 75 -4 85 -22 57z"/>
<path d="M1256 194 c-25 -24 -31 -64 -15 -93 12 -21 24 -27 57 -29 23 -2 42 1
42 6 0 5 -14 7 -30 4 -34 -5 -60 12 -60 39 0 16 8 19 49 19 46 0 49 1 44 23
-11 44 -58 61 -87 31z m58 -10 c25 -25 19 -34 -24 -34 -43 0 -55 20 -22 39 23
14 28 14 46 -5z"/>
<path d="M1425 200 c-3 -6 1 -7 10 -4 28 11 45 -15 46 -75 l2 -56 6 58 c6 55
19 76 47 77 21 0 33 -25 37 -80 l3 -55 2 61 c2 76 -12 94 -61 76 -21 -8 -35
-8 -41 -2 -13 13 -43 13 -51 0z"/>
<path d="M1671 201 c-8 -5 -19 -7 -25 -5 -8 3 -10 -27 -6 -98 2 -57 6 -84 8
-61 l3 42 36 -6 c44 -7 63 13 63 67 0 54 -41 85 -79 61z m51 -18 c34 -30 16
-103 -25 -103 -32 0 -47 18 -47 56 0 32 21 64 42 64 6 0 20 -7 30 -17z"/>
<path d="M1880 199 c-11 -8 -8 -9 13 -4 31 6 57 -8 57 -31 0 -9 -11 -14 -30
-14 -41 0 -74 -33 -60 -60 12 -22 64 -28 76 -9 4 8 9 7 15 -2 5 -9 9 9 9 47 0
33 -5 65 -12 72 -15 15 -48 15 -68 1z m70 -70 c0 -25 -22 -49 -46 -49 -29 0
-42 24 -24 45 14 17 70 20 70 4z"/>
<path d="M2120 190 c-43 -43 -14 -120 45 -120 19 0 36 4 39 8 3 5 -8 6 -25 4
-34 -5 -59 12 -59 39 0 16 8 19 50 19 54 0 55 1 39 33 -23 42 -57 49 -89 17z
m64 -6 c25 -25 19 -34 -24 -34 -43 0 -55 20 -22 39 23 14 28 14 46 -5z"/>
<path d="M1391 135 l2 -70 7 60 c4 33 3 64 -2 70 -4 5 -7 -22 -7 -60z"/>
</g>
</svg>
